PathFileType	3	(X/Y/Z)	D:\Jess\Healthy\Labelled\HA12\20250414\SRRun02.trc
DataRate	CameraRate	NumFrames	NumMarkers	Units	OrigDataRate	OrigDataStartFrame	OrigNumFrames
250.0	250.0	4	37	mm	250.0	35312	2501
Frame#	Time	C7			T10			CLAV			LSHO			RSHO			LASIS			RASIS			LPSIS			RPSIS			LILCR			RILCR			LGTR			LTHI			LLTHI			LLEP			LMEP			LPSH			LLSH			LDSH			LLMAL			LMMAL			LTOE			L5TH			LHEE			RGTR			RTHI			RLTHI			RLEP			RMEP			RPSH			RLSH			RDSH			RLMAL			RMMAL			RTOE			R5TH			RHEE			
		X1	Y1	Z1	X2	Y2	Z2	X3	Y3	Z3	X4	Y4	Z4	X5	Y5	Z5	X6	Y6	Z6	X7	Y7	Z7	X8	Y8	Z8	X9	Y9	Z9	X10	Y10	Z10	X11	Y11	Z11	X12	Y12	Z12	X13	Y13	Z13	X14	Y14	Z14	X15	Y15	Z15	X16	Y16	Z16	X17	Y17	Z17	X18	Y18	Z18	X19	Y19	Z19	X20	Y20	Z20	X21	Y21	Z21	X22	Y22	Z22	X23	Y23	Z23	X24	Y24	Z24	X25	Y25	Z25	X26	Y26	Z26	X27	Y27	Z27	X28	Y28	Z28	X29	Y29	Z29	X30	Y30	Z30	X31	Y31	Z31	X32	Y32	Z32	X33	Y33	Z33	X34	Y34	Z34	X35	Y35	Z35	X36	Y36	Z36	X37	Y37	Z37	

313	141.244	1277.860742003886	1508.936094374475	-316.4264885264329	1167.172511707829	1238.462800635484	-319.0761957157553	1399.769681332319	1380.908418581183	-371.2341424032527	1288.613056489109	1478.796114787201	-489.2957314801054	1390.321486435228	1430.519159115706	-200.8421231054546	1306.770154915803	991.3515298569625	-488.7184125207276	1337.791871689307	960.1277211249152	-252.7831020525846	1128.085919059811	1066.338537652692	-357.471783305951	1134.763938581184	1066.012633023162	-318.9088298681583	1241.873669192212	1059.206645123448	-534.916687624241	1296.285095784439	1027.836458746052	-187.3438898836569	1293.414523885079	883.3718201988254	-544.8818927128507	1402.578544376317	797.7867574713637	-457.4732043168195	1350.655524433839	706.965475525007	-521.9326110957732	1379.249820677449	572.0611630622657	-506.8208484096362	nan	nan	nan	1418.411417677636	458.4275089862269	-459.6435752086246	1324.705135150423	355.9670653890364	-505.0231204017602	1372.363631634767	239.9631854933434	-443.4186259899299	1309.602744785921	151.842715661284	-454.440100950126	nan	nan	nan	1461.614505415416	101.8169594710311	-460.6830160897509	1426.773200326313	73.97376963350948	-489.6637247795837	1248.712188136905	121.117327483623	-392.0400631419951	1229.486799978838	869.88779250473	-172.086462899489	1271.410961330484	717.6542700329403	-285.6603674000035	1132.497976045624	681.5705665881407	-194.2348005106192	1071.731657624982	563.1683271948103	-209.4862128090236	nan	nan	nan	1066.145298312892	445.7623646747753	-268.1866457682553	970.6542476630203	407.7129026942184	-198.5222398093413	939.26734949101	253.931932091556	-278.8119134745074	855.1669238833829	220.2319843010639	-239.4842109858891	nan	nan	nan	919.9976623753628	64.67434635265752	-273.7469109180319	872.5000488987613	61.62313582779785	-231.86821424429	781.6109579147402	248.9241053256262	-290.6060292844773	
314	141.248	1278.371430862062	1509.770464354046	-317.0403489257524	1167.626798301261	1239.763357078829	-319.1928422461251	1400.260076281898	1382.401949723469	-371.7981765720961	1288.693815440694	1479.72277333152	-489.6725544720999	1391.053963222092	1431.660513299043	-201.8043605069874	1307.185518174266	993.528976708978	-488.9616470449791	1338.250881026666	961.8521388516666	-253.4873457457568	1128.865983916462	1067.975336176441	-357.5571718444166	1135.530458758793	1067.617829627259	-319.0199044256164	1242.329879554881	1061.619301977329	-534.7818543418915	1297.295619418291	1029.781658836537	-187.9397800936756	1293.206814186169	884.9105669871124	-545.5443994277803	1402.227788341754	798.8274603306746	-459.0346043420946	1347.986167024188	707.3440452354104	-522.0435468785241	1377.133077670413	572.158694160041	-506.8305817272628	nan	nan	nan	1419.678820311841	459.3979465376743	-459.764637156691	1329.759720111292	353.8979048114347	-505.3796241025729	1381.604406583651	239.5781798017687	-443.6238157395406	1322.213495527803	149.1124724829709	-454.6146896632787	nan	nan	nan	1476.077132577804	104.951599351514	-460.5851207228574	1442.45788871871	75.93222746498678	-489.680815828799	1262.58048675297	115.98546209488	-392.3621404665741	1229.449254773642	871.4452872430061	-172.0919598701281	1270.483531441529	718.4477772601921	-285.2414809445572	1131.12729923186	683.6676568757119	-194.1848919862777	1069.862267057928	565.3551671903463	-209.3647321628403	nan	nan	nan	1062.971016622237	447.8958600126657	-268.0657604316181	967.5793111039582	410.6185280915464	-197.7524303137463	934.5888982356163	256.6826599977052	-277.5841735586866	850.4199708595627	223.9627909080941	-237.9321795057883	nan	nan	nan	911.2063883401405	66.23110103767736	-272.7961435059557	863.271085383946	64.4428224063534	-231.2912022413604	778.1786549811817	255.046034269075	-288.7516180842147	
315	141.252	1278.896009622994	1510.462272052708	-317.6802321453145	1168.016601062424	1240.968691958752	-319.3690257488748	1400.780756881879	1383.733708301709	-372.3147039853901	1288.864773351522	1480.452358521835	-490.1119762565187	1391.785598007529	1432.62411830695	-202.751286232485	1307.598125668098	995.4543989138842	-489.1224222452209	1338.637939197044	963.487169568163	-254.119239477129	1129.586508993052	1069.400029063034	-357.7108198996456	1136.22969590662	1069.02467556348	-319.1964200149807	1242.843791368193	1063.799644859762	-534.6180478566192	1298.121277178029	1031.63598445016	-188.4549419479384	1292.959911233265	886.1262810781051	-546.1591329902877	1401.72130439769	799.4455518357265	-460.6432658756033	1345.081601893254	707.431657227888	-522.2736367493889	1374.976441743487	572.0970247581877	-506.8432678749036	nan	nan	nan	1420.880319112593	460.3175006154241	-459.8347516382307	1334.780446406347	351.9918046686266	-505.7869599910703	1390.582592469059	239.4425721647652	-443.8394991057077	1334.562750131227	146.7920338437352	-454.8681154379823	nan	nan	nan	1490.046387721693	108.4023695194428	-460.4349614700589	1457.715151712436	78.25493337720823	-489.6648673210861	1276.190819384082	111.3213087650016	-392.8199541736453	1229.420969735914	872.8991100229483	-172.0861181644352	1269.775052207641	719.1399586509607	-284.767232823075	1130.00968248121	685.5290398833783	-194.160134176218	1068.407416141298	567.2075585355344	-209.2845717048733	nan	nan	nan	1060.083881562108	449.7351412314448	-268.0203739732386	964.7990557736729	413.2859502638351	-197.0249125165707	929.9419931142687	259.355014847972	-276.4240739395445	845.6782000725188	227.7062134346756	-236.4289836479992	nan	nan	nan	902.3811780697388	67.98758891677366	-271.8417781205908	854.0558901470716	67.46761352120208	-230.6945124298649	774.7892130496929	261.105957951573	-286.9480957711355	
316	141.256	1279.431937752931	1511.013627672316	-318.3493816296495	1168.341357005801	1242.075497817047	-319.6055571277986	1401.328094620229	1384.894227159455	-372.7883017983145	1289.126440070457	1480.983523322514	-490.6186512628643	1392.512675463327	1433.412476184558	-203.6802443682778	1308.000873213834	997.1149032612387	-489.2035567749901	1338.956265575916	965.0200318279091	-254.6786965183351	1130.239867642232	1070.607895971613	-357.9363280029454	1136.858018923153	1070.226398037144	-319.4412833890231	1243.411394568196	1065.733802141682	-534.4322743486587	1298.761345908342	1033.38757130054	-188.8967816014075	1292.659404650232	887.0040012828824	-546.7273507741925	1401.052948542545	799.6231075258587	-462.2841029964216	1341.996702245384	707.2381303140265	-522.6387132573009	1372.821669765041	571.8887426985668	-506.8658461730611	nan	nan	nan	1422.026480426192	461.1907237851336	-459.8590669142077	1339.735674043601	350.2604362514352	-506.2339732966157	1399.25501818959	239.5395715700207	-444.064164428386	1346.578375551515	144.8688292999713	-455.1902268324083	nan	nan	nan	1503.45964378256	112.1143228003668	-460.2336259244541	1472.469367711106	80.88453157561882	-489.6062258541318	1289.46186117437	107.1185640242557	-393.3935076832449	1229.401907189938	874.2406059188396	-172.0796110058922	1269.29256748766	719.7305763919894	-284.2612512334409	1129.15568402135	687.1377108274407	-194.1602924664893	1067.366304089203	568.7161925002628	-209.2441736607448	nan	nan	nan	1057.482987657266	451.2710699838517	-268.0364934787063	962.3002357244889	415.7195746122848	-196.3382824005972	925.3220593970232	261.9614475954587	-275.3304984216373	840.9332035445273	231.476789722673	-234.9805017842982	nan	nan	nan	893.5266935317426	69.95599074624504	-270.8842264628283	844.8654731780737	70.70114297307526	-230.0725402511243	771.4226586402151	267.1069836808961	-285.2083961609117	
